PathFileType	4	(X/Y/Z)	C:/Users/beibeiliu/ov580/test_trc/User2\sequence.32_training_dense_right.trc
DataRate	CameraRate	NumFrames	NumMarkers	Units	OrigDataRate	OrigDataStartFrame	OrigNumFrames
120	120	19	19	mm	120	289	330
Frame#	Time	ThumbCMC			ThumbMCP			ThumbIP			ThumbTip			IndexMCP			IndexPIP			IndexTip			MiddleMCP			MiddlePIP			MiddleTip			RingMCP			RingPIP			RingTip			PinkyMCP			PinkyPIP			PinkyTip			BackHand1			BackHand2			BackHand3	
		X0	Y0	Z0	X1	Y1	Z1	X2	Y2	Z2	X3	Y3	Z3	X4	Y4	Z4	X5	Y5	Z5	X6	Y6	Z6	X7	Y7	Z7	X8	Y8	Z8	X9	Y9	Z9	X10	Y10	Z10	X11	Y11	Z11	X12	Y12	Z12	X13	Y13	Z13	X14	Y14	Z14	X15	Y15	Z15	X16	Y16	Z16	X17	Y17	Z17	X18	Y18	Z18	
288	2.4	55.2546	71.9412	119.904	34.3423	90.8547	90.5471	20.9363	109.304	64.0058	27.5894	123.26	38.2981	88.3555	149.751	106.006	80.9025	175.568	87.7448	59.5056	168.981	56.6471	112.132	151.701	87.2083	101.802	171.083	57.546	72.0494	160.635	36.5792	106.062	130.207	57.7921	82.2335	125.706	34.9065	65.7686	96.1487	52.9111	113.297	109.583	42.0373	85.6533	101.247	28.9424	73.7318	81.329	57.638	127.222	85.2071	101.323	125.869	60.0216	116.981	101.153	80.9558	128.212	
289	2.40833	56.6438	71.7994	115.371	34.6031	85.7478	87.6533	17.68	102.765	61.7365	27.063	114.762	36.0022	85.2131	147.311	102.346	79.7835	171.483	79.3583	58.781	166.85	53.6314	108.919	147.287	83.7831	103.075	167.007	53.3543	73.4099	153.738	28.3844	104.512	127.703	48.8319	81.0141	120.077	28.4432	67.2522	90.941	45.3817	112.727	105.741	36.1496	82.385	98.6782	29.0535	73.1172	78.9742	48.9453	127.644	81.2966	93.5937	128.384	53.2406	110.895	100.853	82.1403	126.892	
290	2.41667	54.4248	68.9721	110.728	34.5216	83.6461	79.5314	20.9776	101.63	52.8317	27.0299	114.552	27.6559	83.1226	147.422	94.6043	77.5657	168.853	68.855	60.7679	161.282	44.0618	109.807	145.187	74.7016	99.6446	164.474	44.8395	71.0431	148.1	21.466	104.318	123.31	45.5318	81.0306	115.287	23.3874	65.3039	88.1843	41.2752	115.87	98.2518	33.7546	82.0151	94.2602	24.1393	72.327	70.2061	44.982	127.055	80.3987	88.8919	127.151	52.4007	107.12	99.2494	80.6993	120.874	
291	2.425	55.3466	66.3041	101.122	31.3623	79.3735	73.4046	21.926	94.4977	46.4701	24.8565	108.817	19.114	82.514	141.302	84.615	76.8848	163.061	61.8211	55.9692	154.316	33.2945	108.977	137.055	66.9791	99.1011	159.026	36.56	71.802	144.317	12.9947	102.565	119.54	34.1188	82.3671	111.963	15.1648	65.1151	82.978	34.4951	113.681	93.3055	26.8756	82.3387	84.6059	14.3321	72.027	62.9592	37.43	124.842	78.8457	84.6202	122.539	52.1407	101.437	98.5306	74.4342	115.252	
292	2.43333	52.5001	60.9568	94.869	29.7158	71.4385	67.9839	16.7978	90.6701	35.9198	23.5697	101.886	9.90124	80.103	135.227	75.38	74.1875	159.516	52.1612	54.9298	149.97	23.9822	106.375	135.597	56.4749	98.7455	153.808	27.4368	72.3562	134.048	0.0444542	104.146	112.823	24.6518	78.4192	102.209	6.57013	67.6365	75.6855	21.2562	112.182	89.4634	21.4826	80.7945	76.8052	6.64352	70.6714	58.0343	31.1321	124.417	78.2841	75.3385	125.082	46.1773	96.4672	95.5841	74.15	106.571	
293	2.44167	49.982	60.5018	85.3259	33.2594	67.0411	57.0712	18.426	80.0911	28.6909	20.0509	92.3044	0.21297	80.1897	130.745	62.9653	72.0399	154.141	36.6936	55.1688	144.384	12.6685	106.325	128.348	45.3638	93.9365	147.773	11.6019	70.2623	128.731	-10.6112	101.28	106.325	16.1531	78.9954	94.3675	-4.62744	65.728	68.8541	15.0953	107.731	84.2811	10.0546	81.2296	71.5577	-1.69627	71.4564	53.531	19.7173	119.354	70.98	68.6992	123.654	42.3691	90.3147	91.3407	70.0815	99.231	
294	2.45	49.1668	53.9039	76.8016	28.3324	61.7991	47.5466	16.1652	71.7439	19.1643	22.2436	83.0933	-10.674	79.3502	125.746	49.0143	70.1135	148.952	22.5659	53.3973	137.082	-1.2694	105.17	122.864	32.5557	94.9926	137.169	-3.30205	69.8642	117.313	-24.2777	101.012	100.6	8.56717	78.9111	87.9153	-15.5607	64.0415	63.1198	5.41174	111.963	74.3496	-0.410786	82.3535	61.1595	-14.7944	68.5774	47.7796	11.5621	120.336	68.9466	59.3204	118.436	39.719	83.6059	92.4827	67.5983	89.4539	
295	2.45833	45.8259	48.0731	69.4271	28.3585	56.6094	36.3821	15.529	66.8241	5.89057	23.5204	74.8864	-22.4456	74.9413	120.444	37.5228	68.8963	141.909	8.14271	51.6154	127.767	-18.4038	100.296	116.664	21.7635	94.69	131.695	-12.6993	70.3104	110.309	-36.0299	100.16	93.5449	-5.34896	80.4386	81.5505	-26.6308	67.0388	53.5038	-7.53155	107.351	68.7843	-12.5579	81.0673	53.582	-22.9009	70.2572	41.4124	1.10598	116.303	62.2124	49.7982	118.402	39.4419	72.4055	87.4861	67.0329	78.3918	
296	2.46667	46.6876	45.5908	57.179	28.8123	50.6814	24.6723	13.0149	61.6725	-8.41896	23.2795	67.2734	-34.993	72.1944	115.3	23.6786	68.8809	134.314	-3.54879	51.0286	118.559	-32.7346	101.28	111.757	6.60762	92.676	123.8	-27.2363	69.8962	101.06	-50.8658	97.8344	87.4149	-18.3104	76.0774	72.4222	-36.2965	65.6157	48.4393	-16.4862	107.321	61.826	-22.2326	84.009	44.1425	-33.5165	70.3847	28.8026	-3.41246	114.668	57.3602	40.7821	118.471	35.4588	62.5056	85.3879	63.1997	69.6656	
297	2.475	44.7461	39.328	49.3777	24.4447	46.1205	15.268	11.6884	52.594	-16.2104	21.714	58.5133	-45.7679	72.7833	111.965	9.66491	65.7542	127.084	-15.3017	47.8211	109.548	-46.0204	100.146	107.417	-5.54351	89.0124	117.514	-41.5135	72.9802	92.3811	-62.7465	98.7822	79.3906	-26.2286	77.1833	65.154	-47.0575	65.9404	37.8155	-24.0502	107.84	53.7057	-28.0444	81.7477	36.3241	-40.7556	71.0497	24.6176	-14.1719	115.436	54.0553	31.78	112.192	33.9942	57.6225	83.3138	59.6546	60.7207	
298	2.48333	41.0694	34.8018	42.5871	23.4619	39.0901	8.32909	13.9674	44.6501	-24.7942	19.2797	50.2331	-52.9145	69.1018	103.809	-0.11047	59.1904	120.827	-30.7448	47.4346	101.566	-54.445	95.7066	99.9134	-13.8029	87.876	109.99	-50.5344	66.911	86.6671	-72.2918	95.8752	71.9889	-36.4376	79.7334	57.0078	-55.6914	63.9813	30.9944	-29.8077	107.485	45.3108	-38.7372	80.2902	31.7908	-47.25	69.264	20.3633	-19.9899	113.72	50.9594	21.8996	112.353	27.5686	52.2573	83.4742	53.4121	47.9057	
299	2.49167	41.3781	28.7127	34.1816	19.829	34.6579	-1.02522	10.722	36.2008	-30.6997	19.4222	41.7689	-61.5722	65.3519	96.4893	-8.39171	59.9717	112.388	-37.2186	46.9865	93.3821	-64.8301	93.9269	95.3268	-25.0759	89.4191	100.601	-58.6659	69.335	77.9507	-81.9666	94.865	64.9978	-45.3138	76.7011	46.6988	-63.1105	63.8307	23.3997	-38.2312	107.068	38.8741	-40.96	78.1449	21.8938	-52.5382	69.0979	11.2811	-22.4927	111.069	45.5944	19.0642	113.337	25.4062	42.7542	78.5604	49.9181	42.5496	
300	2.5	41.1505	22.8205	27.9305	17.9356	24.6624	-5.24829	7.79811	30.9543	-40.4788	16.2689	31.905	-64.7182	63.221	91.4598	-18.6589	56.9328	103.857	-47.9377	43.1899	84.1416	-75.716	89.9671	88.0957	-31.6317	84.2056	95.5192	-65.252	69.3623	66.7237	-91.1199	95.1061	56.7316	-50.8172	77.0883	38.9188	-71.3123	61.8163	17.2432	-47.5936	105.21	31.6582	-52.1782	78.4216	9.77997	-58.811	68.1402	2.5207	-31.9468	107.578	44.1473	10.0153	109.262	23.9411	38.1807	75.9695	46.3677	35.5207	
301	2.50833	34.4275	18.2254	23.7434	18.8533	18.1213	-11.2254	4.38144	20.6995	-43.6873	14.8027	24.5217	-72.1439	58.9554	84.3651	-27.3456	52.8886	95.2635	-58.2996	43.2533	75.6109	-86.6102	89.1837	81.7698	-42.0643	82.4865	86.2752	-77.1318	67.0416	57.9999	-101.263	90.5946	48.4158	-60.0483	74.9258	30.58	-77.1452	59.2404	7.84024	-50.0545	100.916	26.4497	-56.6072	80.8424	4.2296	-64.4096	67.7205	-7.02891	-31.5668	106.326	36.987	4.69478	108.782	19.4033	35.7059	76.8071	42.8485	24.7971	
302	2.51667	36.451	13.4026	16.1595	18.3151	10.9393	-14.9952	3.58419	12.523	-47.378	8.12711	11.9059	-72.8697	53.8221	75.0688	-35.7133	51.4267	85.4449	-69.2682	40.9767	68.6657	-98.2712	83.2882	71.9549	-47.6323	81.7973	76.6624	-86.376	68.0369	51.8717	-112.679	91.9095	39.5627	-67.8399	76.1816	16.8267	-82.809	62.3046	-4.60803	-56.5537	101.779	18.2004	-61.4845	80.1072	-7.1283	-67.8139	69.1581	-13.9866	-37.9929	101.67	36.5734	-1.99018	104.413	17.7546	31.6342	72.5644	40.142	19.1578	
303	2.525	32.3003	9.29471	13.0411	14.5713	5.12505	-19.1558	-3.19881	3.29168	-50.3912	-4.06133	0.343613	-75.1916	52.4194	65.276	-45.8579	44.109	77.5541	-77.6229	39.0641	66.8598	-105.706	82.9375	65.1357	-59.5388	76.3054	69.5892	-96.7042	68.9272	47.8292	-123.025	90.5188	31.0693	-69.5611	77.408	5.31766	-89.4875	61.0128	-15.283	-62.2811	103.567	6.76594	-68.329	82.2184	-16.2268	-71.7786	64.6669	-20.5935	-41.156	98.7377	32.1804	-10.2808	102.038	17.9258	23.5962	67.0353	35.9401	13.4521	
304	2.53333	33.6718	5.52175	9.25188	13.2015	-1.18167	-18.4892	-3.18043	-5.59045	-47.8847	-8.44922	-11.3291	-71.9018	46.7422	58.5664	-57.151	42.5357	66.6717	-83.3846	39.1305	58.7522	-117.196	78.5636	56.2249	-67.1786	79.1563	58.6848	-102.553	70.5631	41.5338	-136.807	87.7823	20.5375	-78.9594	75.2683	-6.90375	-93.3918	62.9778	-25.7204	-68.6562	104.809	-3.31279	-70.4374	84.2156	-26.5635	-74.0821	70.5117	-34.7867	-45.4804	99.4467	27.4013	-15.5968	102.693	18.239	17.5033	65.8775	34.4669	8.74608	
305	2.54167	32.4675	1.5639	8.09329	11.6719	-9.07279	-15.0638	-6.27875	-14.1495	-47.5739	-14.6839	-21.4651	-70.809	46.1053	45.461	-62.7095	39.3019	54.5075	-89.8963	36.1926	53.3874	-121.061	76.7795	44.4034	-71.5192	76.3895	47.932	-110.08	74.8183	36.9674	-141.255	89.3792	9.76854	-83.1561	78.6978	-13.741	-96.6678	63.0121	-35.7408	-70.519	107.148	-11.9608	-67.7677	84.055	-40.487	-71.4827	68.3124	-40.3819	-47.2547	99.6097	21.5443	-16.779	104.41	16.5014	14.1105	64.0021	28.8803	2.92232	
306	2.55	29.3744	-1.86673	5.39173	8.17574	-15.0833	-16.8272	-13.2315	-23.5066	-44.1803	-21.9397	-33.1828	-62.6531	40.6651	37.4724	-70.8238	39.3262	41.6015	-96.7123	37.1362	43.4486	-125.76	75.8469	35.0579	-78.7564	74.3614	37.4982	-115.134	77.9238	29.1897	-145.149	89.6116	1.31596	-82.7391	79.3278	-25.4327	-96.3956	67.0421	-47.5569	-68.4056	103.299	-18.9267	-70.9167	88.0456	-46.4655	-72.1636	67.3765	-51.6922	-42.1842	96.2373	17.7951	-19.302	102.247	12.4609	14.0033	65.7216	24.1943	-4.51387	
